PathFileType	4	(X/Y/Z)	Patient4_TMGait_0pt3_03_left_08.trc.trc
DataRate	CameraRate	NumFrames	NumMarkers	Units	OrigDataRate	OrigDataStartFrame	OrigNumFrames
51.660516605166	51.660516605166	4	33	mm	51.660516605166	71	       141
Frame#	Time	Sacral			L.Shoulder			Chest			R.Shoulder			Neck			R.ASIS			L.ASIS			R.Thigh.Superior			R.Thigh.Lateral			R.Thigh.Inferior			R.Patella			L.Thigh.Superior			L.Thigh.Lateral			L.Thigh.Inferior			L.Patella			L.Shank.Superior			L.Shank.Lateral			L.Shank.Inferior			R.Shank.Superior			R.Shank.Lateral			R.Shank.Inferior			R.Heel			R.Midfoot.Superior			R.Midfoot.Lateral			R.Toe			L.Heel			L.Midfoot.Lateral			L.Midfoot.Superior			L.Toe			L.Elbow			L.Wrist			R.Elbow			R.Wrist			
		X1	Y1	Z1	X2	Y2	Z2	X3	Y3	Z3	X4	Y4	Z4	X5	Y5	Z5	X6	Y6	Z6	X7	Y7	Z7	X8	Y8	Z8	X9	Y9	Z9	X10	Y10	Z10	X11	Y11	Z11	X12	Y12	Z12	X13	Y13	Z13	X14	Y14	Z14	X15	Y15	Z15	X16	Y16	Z16	X17	Y17	Z17	X18	Y18	Z18	X19	Y19	Z19	X20	Y20	Z20	X21	Y21	Z21	X22	Y22	Z22	X23	Y23	Z23	X24	Y24	Z24	X25	Y25	Z25	X26	Y26	Z26	X27	Y27	Z27	X28	Y28	Z28	X29	Y29	Z29	X30	Y30	Z30	X31	Y31	Z31	X32	Y32	Z32	X33	Y33	Z33	

71	15.465000000000	738.580464895067	1014.566848190040	394.675157792350	981.072950066991	1437.004302710579	261.682979539120	1028.015655136846	1366.215404327863	444.967468510990	901.902201213599	1446.587806984246	586.191511701866	918.145678967058	1499.206459949673	409.934586689308	936.692138945478	950.443402539363	562.516970465683	981.154780254939	960.093688930211	290.775780844327	1010.080557383418	773.264304284306	541.607158153613	955.895218946881	653.526878947306	607.905336547765	1047.967285149450	610.368469863867	535.851829415303	1074.699012801561	522.110378810276	558.975167087906	990.412756134666	735.850395195252	325.881931420427	891.904173160339	629.775167155649	254.712128175328	952.534411229320	545.411233467702	330.205558985803	941.510700826534	479.652961183989	340.541444804452	912.047064098080	411.212934244535	331.164929385297	819.752808397603	299.722038919919	278.261909462562	857.446240041010	189.849825071790	359.415276632691	1043.556763719244	434.736396320941	568.869186376871	967.644008738561	333.601328512620	629.601065878031	1026.191221915659	236.211823829604	585.239956457998	908.189571240362	59.436614459562	554.457922910436	1073.688130363224	119.857717797566	602.941445987425	989.311611632737	49.509351482845	631.012873668050	1194.268454526399	75.807796098459	633.264225925622	719.854871734285	38.436934129216	401.982070358429	794.831966054467	35.043286883200	321.937424780269	879.056669831451	95.693539262678	350.189616218821	1007.279233714217	41.750331785341	323.520435222269	1134.229931730506	1160.905352065441	101.757542027435	1392.973613952207	1151.531958961555	133.667841434810	721.374702907009	1143.097270070062	651.959826417319	688.585005051949	882.828673778604	659.153900472411	
72	15.484357142857	738.454938791479	1014.180460053868	395.403008410599	982.187343975226	1436.235026270266	264.520775065206	1027.792445559028	1365.333207934342	448.091736580057	900.795469876656	1445.933623027576	588.379102002660	918.234215409309	1498.469173114295	412.300910605093	935.083892909801	949.188768059580	564.794220590308	981.608298604204	959.461762646507	293.187794251176	1006.704406501586	770.438588747521	544.938523066192	949.556979742584	651.014932356770	609.947436331963	1042.064514278809	607.475837327480	538.796904959160	1068.433065041953	521.860360175957	560.422845874483	987.180651629971	734.466145236971	327.621098085632	887.013207844788	630.212747797656	254.771016204512	945.347771918392	544.692290765743	330.249358893316	933.279784030307	479.623854714155	340.186362852455	904.425993376822	411.708998283882	330.751064215726	812.690717151470	299.760448247192	277.766990884468	850.864937047622	190.091513558523	359.228245139694	1041.972182428505	434.268777689997	570.253883845629	972.026839753147	328.978925235863	631.890282215492	1035.568190018216	234.680992820786	587.063653836025	926.255082405644	52.610051854659	557.468655488295	1089.978656832672	119.438879881841	604.219633299924	1008.722195165005	45.475405975713	632.902030542224	1212.957656052306	79.917420143470	633.056525776982	713.961152099114	38.326663911802	401.968590358001	788.892156922475	34.941141604248	321.901202551230	873.072259843788	95.656451450389	350.138273886254	1001.339193817072	41.908454396703	323.576822106532	1138.780550386287	1162.711524318472	105.135882755158	1397.479884689268	1158.405546485811	138.261117563907	719.780630033825	1142.606980136754	652.653676009531	686.375797729104	882.347371397423	659.460638229933	
73	15.503714285714	738.651172057274	1013.353054268745	396.570935578623	983.139092466356	1435.173549236675	267.647809679080	1027.782768972342	1364.115260753267	451.397166679991	900.102196424391	1444.798088988629	591.017637943853	918.436735639393	1497.385070712774	415.078323261288	934.000111238188	947.447930576836	567.191666671942	982.287597974561	958.572887383129	295.695142716599	1003.944126657297	767.260283187902	548.297722682986	943.871894400298	648.101658620955	611.861553460659	1036.903679341361	604.352588357635	541.616430143666	1062.594581131064	521.019994712952	561.741431315433	984.501609295299	732.959642377504	329.328814320958	882.705083929294	630.456605520350	255.020070361750	938.940808418008	543.866298921594	330.382343263609	925.958205047359	479.400703226204	339.923632991260	897.437238345397	412.007854879010	330.480941014057	806.051451661119	299.787522830804	277.400663445960	844.507847963432	190.222040486355	359.087869733932	1040.211814231659	433.286780830330	571.465513321096	975.305977636233	324.712092326104	633.554797991573	1042.998008581968	233.249613825479	588.399922954729	941.021989278407	47.699350749001	559.478839032359	1103.222412209672	118.911761265006	604.956419804405	1024.320543073305	42.540657914672	634.019999965032	1227.737893561991	82.603173557595	632.638386999733	708.075034549628	38.219704350257	401.968829440450	782.964029224922	34.848384111557	321.877108277928	867.101897393794	95.607519914722	350.109741692861	995.406522796683	42.024069620731	323.625269458355	1142.775932066812	1163.960149684148	108.707857952332	1401.375956319747	1164.263228845133	142.739339327653	719.151061335830	1141.265454194585	654.043268185921	685.357259205131	881.003037808589	660.530429940345	
74	15.523071428571	739.204575399275	1012.171942185517	398.177740414838	983.959649729073	1433.906784188500	271.072472835743	1028.000279724549	1362.663993349211	454.906925444049	899.808223555197	1443.283420623297	594.112449194938	918.749279165437	1496.035191223555	418.274424389502	933.494129487817	945.325514214443	569.717419704290	983.236012583330	957.505879901551	298.317192086060	1001.930695788643	763.914355507586	551.578559792294	939.101683203723	644.947774939192	613.592832310306	1032.698792366338	601.192364453972	544.191657969748	1057.450107451945	519.702994711774	562.873526641010	982.399908643876	731.353859806560	331.032943328409	878.992364486563	630.531119805314	255.507694098978	933.322987020264	542.948629799720	330.673509643607	919.549592742054	478.987351539954	339.833090383705	891.085801775972	412.116873436342	330.402636934199	799.829499202886	299.821458136185	277.196299916020	838.374613093936	190.249745193594	359.014215891455	1038.457736556268	431.820316248077	572.479728501394	977.494785888705	320.787692730366	634.586527779801	1048.440006456171	231.751736314305	589.220597215050	952.173694075308	44.391648388662	560.471390578011	1113.245779129265	118.076111660257	605.164182981631	1035.835449551775	40.465805795936	634.429781082821	1238.539560963904	83.662574576286	632.127971898830	702.193902097463	38.111894294119	401.982474196895	777.046502846382	34.766061234863	321.867067535923	861.143649668871	95.552764198079	350.106555211685	989.480132457548	42.096853765087	323.665542326627	1146.178601473835	1164.686803782829	112.437203141378	1404.649887850513	1169.080806006834	147.053019034057	719.391938241062	1139.238372261042	656.133222816467	685.443354468959	878.959919412592	662.375145509468	
